<?xml version="1.0" standalone="no"?>
<!DOCTYPE svg PUBLIC "-//W3C//DTD SVG 20010904//EN"
 "http://www.w3.org/TR/2001/REC-SVG-20010904/DTD/svg10.dtd">
<svg version="1.0" xmlns="http://www.w3.org/2000/svg"
 width="700.000000pt" height="700.000000pt" viewBox="0 0 700.000000 700.000000"
 preserveAspectRatio="xMidYMid meet">
<metadata>
Created by potrace 1.14, written by Peter Selinger 2001-2017
</metadata>
<g transform="translate(0.000000,700.000000) scale(0.100000,-0.100000)"
fill="#000000" stroke="none">
<path d="M3130 6414 c-180 -20 -239 -30 -342 -55 -392 -96 -751 -308 -1063
-630 -199 -205 -350 -417 -484 -678 -431 -841 -485 -1856 -147 -2776 56 -151
205 -445 296 -584 113 -173 196 -276 335 -419 310 -320 655 -526 1050 -627
214 -55 278 -60 715 -60 409 0 488 6 675 46 951 208 1716 1122 1909 2284 35
208 46 347 46 585 0 238 -11 377 -46 585 -190 1143 -926 2040 -1864 2274 -180
45 -276 53 -670 56 -206 2 -391 1 -410 -1z m415 -80 c911 -132 1680 -922 1949
-2001 73 -293 100 -519 99 -843 0 -267 -17 -441 -64 -674 -157 -784 -586
-1456 -1174 -1839 -520 -339 -1136 -422 -1713 -231 -132 44 -357 153 -477 231
-680 445 -1144 1282 -1226 2212 -17 196 -7 629 19 796 113 727 396 1306 858
1756 377 367 824 573 1329 613 82 6 293 -4 400 -20z"/>
<path d="M3095 5833 c-583 -74 -1076 -424 -1405 -996 -226 -394 -340 -842
-340 -1337 0 -509 120 -966 359 -1369 306 -515 750 -845 1276 -948 138 -27
436 -25 575 4 675 142 1225 677 1474 1433 100 304 141 564 140 890 -2 324 -41
570 -140 870 -264 803 -868 1355 -1587 1450 -74 9 -286 12 -352 3z m-47 -1150
l2 -213 58 0 c31 0 81 3 110 6 l52 7 0 208 0 209 80 0 80 0 0 -215 c0 -215 0
-215 23 -219 12 -3 60 -12 107 -20 163 -31 291 -118 343 -234 37 -82 53 -212
38 -304 -21 -131 -74 -216 -172 -279 l-51 -32 74 -26 c159 -57 227 -130 264
-288 19 -82 14 -265 -11 -358 -36 -136 -113 -239 -222 -298 -64 -34 -211 -72
-315 -82 l-78 -7 0 -219 0 -219 -80 0 -80 0 0 215 0 215 -33 0 c-19 0 -68 3
-110 6 l-77 7 0 -222 0 -221 -80 0 -80 0 -2 217 -3 218 -213 3 -214 2 6 28 c3
15 11 71 17 125 l12 97 69 0 c38 0 84 6 103 14 67 28 65 6 65 701 0 607 -1
627 -20 665 -27 53 -67 71 -167 78 l-83 5 0 103 0 104 208 2 207 3 3 218 2
218 83 -3 82 -3 3 -212z"/>
<path d="M3050 3936 l0 -296 123 0 c242 0 370 63 412 202 48 163 -25 308 -182
359 -52 16 -102 23 -210 27 l-143 5 0 -297z"/>
<path d="M3068 3434 c-17 -5 -18 -29 -18 -326 l0 -321 163 6 c220 8 327 40
406 119 96 96 106 270 21 386 -38 53 -115 97 -205 118 -69 15 -332 28 -367 18z"/>
</g>
</svg>
